#
#
#

mtllib lever5.mtl


#
# Сетка 
#
g Сетка 


#
# Сетка _Lambert[15]
#
usemtl Сетка _Lambert[15]

v 87.339066 62.196651 -29.665573
v 87.339066 65.487732 -29.665573
v 87.339066 65.487732 -30.174427
v 87.339066 62.196651 -30.174427
v 87.832092 65.487732 -30.174427
v 87.832092 62.196651 -30.174427
v 87.832092 65.487732 -29.665573
v 87.832092 62.196651 -29.665573
vn -1.000000 -0.000000 -0.000000
vn -0.000000 -0.000000 -1.000000
vn 1.000000 0.000000 0.000000
vn 0.000000 0.000000 1.000000
vn -0.000000 -1.000000 -0.000000
vn 0.000000 1.000000 0.000000
vt 0.375000 0.000000
vt 0.625000 0.000000
vt 0.625000 0.250000
vt 0.375000 0.250000
vt 0.625000 0.500000
vt 0.375000 0.500000
vt 0.625000 0.750000
vt 0.375000 0.750000
vt 0.625000 1.000000
vt 0.375000 1.000000
vt 0.125000 0.500000
vt 0.125000 0.750000
vt 0.875000 0.500000
vt 0.875000 0.750000
f 1/1/1 2/2/1 3/3/1 4/4/1
f 4/4/2 3/3/2 5/5/2 6/6/2
f 6/6/3 5/5/3 7/7/3 8/8/3
f 8/8/4 7/7/4 2/9/4 1/10/4
f 4/11/5 6/6/5 8/8/5 1/12/5
f 5/5/6 3/13/6 2/14/6 7/7/6
